<svg class="header__login-logo" xmlns="http://www.w3.org/2000/svg" width="28" height="32"><path fill="#7289da" d="M24.72 0H3.28A3.29 3.29 0 0 0 0 3.296v21.632a3.29 3.29 0 0 0 3.28 3.296h18.144l-.848-2.96 2.048 1.904 1.936 1.792L28 32V3.296A3.29 3.29 0 0 0 24.72 0z"/><path fill="#fff" d="M18.544 20.896L17.488 19.6c2.096-.592 2.896-1.904 2.896-1.904-.656.432-1.28.736-1.84.944a10.53 10.53 0 0 1-2.32.688c-1.536.288-2.944.208-4.144-.016a13.43 13.43 0 0 1-2.352-.688c-.368-.144-.768-.32-1.168-.544-.048-.032-.096-.048-.144-.08-.032-.016-.048-.032-.064-.048l-.448-.272s.768 1.28 2.8 1.888l-1.072 1.328c-3.536-.112-4.88-2.432-4.88-2.432 0-5.152 2.304-9.328 2.304-9.328 2.304-1.728 4.496-1.68 4.496-1.68l.16.192c-2.88.832-4.208 2.096-4.208 2.096l.944-.464c1.712-.752 3.072-.96 3.632-1.008.096-.016.176-.032.272-.032a13.54 13.54 0 0 1 3.232-.032A13.04 13.04 0 0 1 20.4 9.744s-1.264-1.2-3.984-2.032l.224-.256s2.192-.048 4.496 1.68c0 0 2.304 4.176 2.304 9.328 0 0-1.36 2.32-4.896 2.432z"/><path fill="#7289da" d="M11.104 13.424c-.912 0-1.632.8-1.632 1.776s.736 1.776 1.632 1.776c.912 0 1.632-.8 1.632-1.776.016-.976-.72-1.776-1.632-1.776zm5.84 0c-.912 0-1.632.8-1.632 1.776s.736 1.776 1.632 1.776c.912 0 1.632-.8 1.632-1.776s-.72-1.776-1.632-1.776z"/></svg>
