<svg xmlns="http://www.w3.org/2000/svg" width="1366" height="1366" viewBox="0 0 1024 1024"><path d="M450.7 268.8c-2.2.3-2.6.7-2.2 2.5.4 2 3.5 19.9 5 28.7l2.1 12.5c.3 1.1.7 3.3.9 5L475.6 427c.2 1.4 2 11.7 3.9 23l4.1 23c.3 1.4.8 4.6 1.3 7.3.4 2.6 1 5 1.3 5.2.3.3 5.3-2.3 11.2-5.7l13.9-8.2 63.2-36.6c4.1-2.3 80-46.3 106-61.5l125.1-72.6c29.3-16.7 54-31.5 53.1-31.7-1.7-.4-404.7-.8-408-.4zM141 417.2l-.3 44.5c-.1 15.6.2 24.3.8 24.4 4.9.6 291.5.2 291.5-.4 0-.4-.7-.7-1.5-.7s-3.4-.6-5.7-1.4c-2.4-.8-9-2.8-14.8-4.6l-13.5-4.1-11-3.4c-4.4-1.4-8.9-2.7-10-3-1.1-.2-4.9-1.3-8.5-2.5s-10.8-3.4-16-4.9l-26-7.9-183.2-55.8c-1.7-.5-1.8.9-1.8 19.8zm352.5 115.9l1 5.9c.3 1.4.6 3.6.9 5 .2 1.4.9 5.2 1.5 8.5l1.7 9.9c.3 2.1.8 4.8 1 6 .2 1.1.7 3.4.9 5.1l5.2 29c.2 1.6 1 6.4 1.8 10.5l9 51.5 1 5.5 1 5c.2 1.4 1.2 6.8 2.1 12l2 12.5c.2 1.6.8 5 1.4 7.5l2.5 13.5 3.6 20.3c.6 2.9 1.2 6.5 1.4 8 .4 3.3 1.1 7.2 3.1 18.2l2 11c.3 1.4 1.1 6.1 1.9 10.5l1.9 11c.2 1.6 1.6 9.5 3.1 17.5l3 17c.1 1.4 1.2 7.7 2.4 14l2.7 15.5c.8 5.4 3.4 17.8 3.8 18.2.2.2 1-2 1.9-4.9.8-2.9 2.7-8.5 4.2-12.3l5.5-15 32.4-90.5c.8-1.9 5.1-13.9 9.6-26.5l8.7-24.5c.3-.8 2-5.6 3.8-10.6l3.3-9.1-9.2-10.9-65.2-78.4c-1.2-1.4-11.1-13.3-22-26.5L508 548c-.3-.3-3.8-4.5-7.8-9.4-6.7-8.1-7.2-8.5-6.7-5.5zM425 543.7L407.5 554l-71 42-96.5 57c-.8.5-9.4 5.6-19 11.3l-45.7 27-31.4 18.6-3 1.9 3.3 2c1.8 1.2 4.5 2.7 5.8 3.4 1.4.7 8.1 4.7 15 8.7l106.5 62.5 14.4 8.4c1.3.7 6.5 3.7 11.5 6.6l26.6 15.7 26 15.2 12.5 7.2c2.2 1.2 15.3 8.9 29 17l36.6 21.4 5.6 3.1.1-18.7.7-172.6.3-153.7c-.2 0-4.6 2.6-9.8 5.7z"/></svg>